<?xml version="1.0" encoding="UTF-8"?>
<svg width="16px" height="10px" viewBox="0 0 16 10" version="1.1" xmlns="http://www.w3.org/2000/svg" xmlns:xlink="http://www.w3.org/1999/xlink">
    <!-- Generator: Sketch 46.2 (44496) - http://www.bohemiancoding.com/sketch -->
    <title>Стрелка</title>
    <desc>Created with Sketch.</desc>
    <defs></defs>
    <g id="Иконки,-заглушки,-кнопки" stroke="none" stroke-width="1" fill="none" fill-rule="evenodd">
        <g id="Иконки-1" transform="translate(0.000000, -109.000000)" fill="#A8C7E7">
            <g id="Group" transform="translate(0.000000, 14.000000)">
                <path d="M2,99 L3,99 L3,100 L2,100 L2,99 Z M2,98 L3,98 L3,99 L2,99 L2,98 Z M2,97 L3,97 L3,98 L2,98 L2,97 Z M3,98 L4,98 L4,99 L3,99 L3,98 Z M3,99 L4,99 L4,100 L3,100 L3,99 Z M3,100 L4,100 L4,101 L3,101 L3,100 Z M4,99 L5,99 L5,100 L4,100 L4,99 Z M4,100 L5,100 L5,101 L4,101 L4,100 Z M4,101 L5,101 L5,102 L4,102 L4,101 Z M5,100 L6,100 L6,101 L5,101 L5,100 Z M5,101 L6,101 L6,102 L5,102 L5,101 Z M5,102 L6,102 L6,103 L5,103 L5,102 Z M6,101 L7,101 L7,102 L6,102 L6,101 Z M6,102 L7,102 L7,103 L6,103 L6,102 Z M6,103 L7,103 L7,104 L6,104 L6,103 Z M8,102 L9,102 L9,103 L8,103 L8,102 Z M8,104 L9,104 L9,105 L8,105 L8,104 Z M8,103 L9,103 L9,104 L8,104 L8,103 Z M7,102 L8,102 L8,103 L7,103 L7,102 Z M7,104 L8,104 L8,105 L7,105 L7,104 Z M7,103 L8,103 L8,104 L7,104 L7,103 Z M9,103 L10,103 L10,104 L9,104 L9,103 Z M9,102 L10,102 L10,103 L9,103 L9,102 Z M9,101 L10,101 L10,102 L9,102 L9,101 Z M10,102 L11,102 L11,103 L10,103 L10,102 Z M10,101 L11,101 L11,102 L10,102 L10,101 Z M10,100 L11,100 L11,101 L10,101 L10,100 Z M11,101 L12,101 L12,102 L11,102 L11,101 Z M11,100 L12,100 L12,101 L11,101 L11,100 Z M11,99 L12,99 L12,100 L11,100 L11,99 Z M12,100 L13,100 L13,101 L12,101 L12,100 Z M12,99 L13,99 L13,100 L12,100 L12,99 Z M12,98 L13,98 L13,99 L12,99 L12,98 Z M13,99 L14,99 L14,100 L13,100 L13,99 Z M13,98 L14,98 L14,99 L13,99 L13,98 Z M13,97 L14,97 L14,98 L13,98 L13,97 Z M14,98 L15,98 L15,99 L14,99 L14,98 Z M14,97 L15,97 L15,98 L14,98 L14,97 Z M14,96 L15,96 L15,97 L14,97 L14,96 Z M15,97 L16,97 L16,98 L15,98 L15,97 Z M15,96 L16,96 L16,97 L15,97 L15,96 Z M15,95 L16,95 L16,96 L15,96 L15,95 Z M0,97 L1,97 L1,98 L0,98 L0,97 Z M0,96 L1,96 L1,97 L0,97 L0,96 Z M0,95 L1,95 L1,96 L0,96 L0,95 Z M1,98 L2,98 L2,99 L1,99 L1,98 Z M1,97 L2,97 L2,98 L1,98 L1,97 Z M1,96 L2,96 L2,97 L1,97 L1,96 Z" id="Стрелка"></path>
            </g>
        </g>
    </g>
</svg>