<?xml version="1.0" encoding="UTF-8"?>
<svg width="10px" height="16px" viewBox="0 0 10 16" version="1.1" xmlns="http://www.w3.org/2000/svg" xmlns:xlink="http://www.w3.org/1999/xlink">
    <!-- Generator: Sketch 46.2 (44496) - http://www.bohemiancoding.com/sketch -->
    <title>Стрелка</title>
    <desc>Created with Sketch.</desc>
    <defs></defs>
    <g id="Иконки,-заглушки,-кнопки" stroke="none" stroke-width="1" fill="none" fill-rule="evenodd">
        <g id="Иконки-1" transform="translate(-3.000000, -161.000000)" fill="#E6F3FF">
            <g id="Group" transform="translate(0.000000, 14.000000)">
                <path d="M2,154 L3,154 L3,155 L2,155 L2,154 Z M2,153 L3,153 L3,154 L2,154 L2,153 Z M2,152 L3,152 L3,153 L2,153 L2,152 Z M3,153 L4,153 L4,154 L3,154 L3,153 Z M3,154 L4,154 L4,155 L3,155 L3,154 Z M3,155 L4,155 L4,156 L3,156 L3,155 Z M4,154 L5,154 L5,155 L4,155 L4,154 Z M4,155 L5,155 L5,156 L4,156 L4,155 Z M4,156 L5,156 L5,157 L4,157 L4,156 Z M5,155 L6,155 L6,156 L5,156 L5,155 Z M5,156 L6,156 L6,157 L5,157 L5,156 Z M5,157 L6,157 L6,158 L5,158 L5,157 Z M6,156 L7,156 L7,157 L6,157 L6,156 Z M6,157 L7,157 L7,158 L6,158 L6,157 Z M6,158 L7,158 L7,159 L6,159 L6,158 Z M8,157 L9,157 L9,158 L8,158 L8,157 Z M8,159 L9,159 L9,160 L8,160 L8,159 Z M8,158 L9,158 L9,159 L8,159 L8,158 Z M7,157 L8,157 L8,158 L7,158 L7,157 Z M7,159 L8,159 L8,160 L7,160 L7,159 Z M7,158 L8,158 L8,159 L7,159 L7,158 Z M9,158 L10,158 L10,159 L9,159 L9,158 Z M9,157 L10,157 L10,158 L9,158 L9,157 Z M9,156 L10,156 L10,157 L9,157 L9,156 Z M10,157 L11,157 L11,158 L10,158 L10,157 Z M10,156 L11,156 L11,157 L10,157 L10,156 Z M10,155 L11,155 L11,156 L10,156 L10,155 Z M11,156 L12,156 L12,157 L11,157 L11,156 Z M11,155 L12,155 L12,156 L11,156 L11,155 Z M11,154 L12,154 L12,155 L11,155 L11,154 Z M12,155 L13,155 L13,156 L12,156 L12,155 Z M12,154 L13,154 L13,155 L12,155 L12,154 Z M12,153 L13,153 L13,154 L12,154 L12,153 Z M13,154 L14,154 L14,155 L13,155 L13,154 Z M13,153 L14,153 L14,154 L13,154 L13,153 Z M13,152 L14,152 L14,153 L13,153 L13,152 Z M14,153 L15,153 L15,154 L14,154 L14,153 Z M14,152 L15,152 L15,153 L14,153 L14,152 Z M14,151 L15,151 L15,152 L14,152 L14,151 Z M15,152 L16,152 L16,153 L15,153 L15,152 Z M15,151 L16,151 L16,152 L15,152 L15,151 Z M15,150 L16,150 L16,151 L15,151 L15,150 Z M0,152 L1,152 L1,153 L0,153 L0,152 Z M0,151 L1,151 L1,152 L0,152 L0,151 Z M0,150 L1,150 L1,151 L0,151 L0,150 Z M1,153 L2,153 L2,154 L1,154 L1,153 Z M1,152 L2,152 L2,153 L1,153 L1,152 Z M1,151 L2,151 L2,152 L1,152 L1,151 Z" id="Стрелка" transform="translate(8.000000, 155.000000) rotate(-270.000000) translate(-8.000000, -155.000000) "></path>
            </g>
        </g>
    </g>
</svg>