<?xml version="1.0" encoding="UTF-8"?>
<svg width="16px" height="10px" viewBox="0 0 16 10" version="1.1" xmlns="http://www.w3.org/2000/svg" xmlns:xlink="http://www.w3.org/1999/xlink">
    <!-- Generator: Sketch 46.2 (44496) - http://www.bohemiancoding.com/sketch -->
    <title>Стрелка</title>
    <desc>Created with Sketch.</desc>
    <defs></defs>
    <g id="Иконки,-заглушки,-кнопки" stroke="none" stroke-width="1" fill="none" fill-rule="evenodd">
        <g id="Иконки-1" transform="translate(0.000000, -135.000000)" fill="#A8C7E7">
            <g id="Group" transform="translate(0.000000, 14.000000)">
                <path d="M2,125 L3,125 L3,126 L2,126 L2,125 Z M2,124 L3,124 L3,125 L2,125 L2,124 Z M2,123 L3,123 L3,124 L2,124 L2,123 Z M3,124 L4,124 L4,125 L3,125 L3,124 Z M3,125 L4,125 L4,126 L3,126 L3,125 Z M3,126 L4,126 L4,127 L3,127 L3,126 Z M4,125 L5,125 L5,126 L4,126 L4,125 Z M4,126 L5,126 L5,127 L4,127 L4,126 Z M4,127 L5,127 L5,128 L4,128 L4,127 Z M5,126 L6,126 L6,127 L5,127 L5,126 Z M5,127 L6,127 L6,128 L5,128 L5,127 Z M5,128 L6,128 L6,129 L5,129 L5,128 Z M6,127 L7,127 L7,128 L6,128 L6,127 Z M6,128 L7,128 L7,129 L6,129 L6,128 Z M6,129 L7,129 L7,130 L6,130 L6,129 Z M8,128 L9,128 L9,129 L8,129 L8,128 Z M8,130 L9,130 L9,131 L8,131 L8,130 Z M8,129 L9,129 L9,130 L8,130 L8,129 Z M7,128 L8,128 L8,129 L7,129 L7,128 Z M7,130 L8,130 L8,131 L7,131 L7,130 Z M7,129 L8,129 L8,130 L7,130 L7,129 Z M9,129 L10,129 L10,130 L9,130 L9,129 Z M9,128 L10,128 L10,129 L9,129 L9,128 Z M9,127 L10,127 L10,128 L9,128 L9,127 Z M10,128 L11,128 L11,129 L10,129 L10,128 Z M10,127 L11,127 L11,128 L10,128 L10,127 Z M10,126 L11,126 L11,127 L10,127 L10,126 Z M11,127 L12,127 L12,128 L11,128 L11,127 Z M11,126 L12,126 L12,127 L11,127 L11,126 Z M11,125 L12,125 L12,126 L11,126 L11,125 Z M12,126 L13,126 L13,127 L12,127 L12,126 Z M12,125 L13,125 L13,126 L12,126 L12,125 Z M12,124 L13,124 L13,125 L12,125 L12,124 Z M13,125 L14,125 L14,126 L13,126 L13,125 Z M13,124 L14,124 L14,125 L13,125 L13,124 Z M13,123 L14,123 L14,124 L13,124 L13,123 Z M14,124 L15,124 L15,125 L14,125 L14,124 Z M14,123 L15,123 L15,124 L14,124 L14,123 Z M14,122 L15,122 L15,123 L14,123 L14,122 Z M15,123 L16,123 L16,124 L15,124 L15,123 Z M15,122 L16,122 L16,123 L15,123 L15,122 Z M15,121 L16,121 L16,122 L15,122 L15,121 Z M0,123 L1,123 L1,124 L0,124 L0,123 Z M0,122 L1,122 L1,123 L0,123 L0,122 Z M0,121 L1,121 L1,122 L0,122 L0,121 Z M1,124 L2,124 L2,125 L1,125 L1,124 Z M1,123 L2,123 L2,124 L1,124 L1,123 Z M1,122 L2,122 L2,123 L1,123 L1,122 Z" id="Стрелка" transform="translate(8.000000, 126.000000) scale(1, -1) translate(-8.000000, -126.000000) "></path>
            </g>
        </g>
    </g>
</svg>