<?xml version="1.0" encoding="UTF-8"?>
<svg width="10px" height="16px" viewBox="0 0 10 16" version="1.1" xmlns="http://www.w3.org/2000/svg" xmlns:xlink="http://www.w3.org/1999/xlink">
    <!-- Generator: Sketch 46.2 (44496) - http://www.bohemiancoding.com/sketch -->
    <title>Стрелка</title>
    <desc>Created with Sketch.</desc>
    <defs></defs>
    <g id="Иконки,-заглушки,-кнопки" stroke="none" stroke-width="1" fill="none" fill-rule="evenodd">
        <g id="Иконки-1" transform="translate(-3.000000, -177.000000)" fill="#E6F3FF">
            <g id="Group" transform="translate(0.000000, 14.000000)">
                <path d="M2,170 L3,170 L3,171 L2,171 L2,170 Z M2,169 L3,169 L3,170 L2,170 L2,169 Z M2,168 L3,168 L3,169 L2,169 L2,168 Z M3,169 L4,169 L4,170 L3,170 L3,169 Z M3,170 L4,170 L4,171 L3,171 L3,170 Z M3,171 L4,171 L4,172 L3,172 L3,171 Z M4,170 L5,170 L5,171 L4,171 L4,170 Z M4,171 L5,171 L5,172 L4,172 L4,171 Z M4,172 L5,172 L5,173 L4,173 L4,172 Z M5,171 L6,171 L6,172 L5,172 L5,171 Z M5,172 L6,172 L6,173 L5,173 L5,172 Z M5,173 L6,173 L6,174 L5,174 L5,173 Z M6,172 L7,172 L7,173 L6,173 L6,172 Z M6,173 L7,173 L7,174 L6,174 L6,173 Z M6,174 L7,174 L7,175 L6,175 L6,174 Z M8,173 L9,173 L9,174 L8,174 L8,173 Z M8,175 L9,175 L9,176 L8,176 L8,175 Z M8,174 L9,174 L9,175 L8,175 L8,174 Z M7,173 L8,173 L8,174 L7,174 L7,173 Z M7,175 L8,175 L8,176 L7,176 L7,175 Z M7,174 L8,174 L8,175 L7,175 L7,174 Z M9,174 L10,174 L10,175 L9,175 L9,174 Z M9,173 L10,173 L10,174 L9,174 L9,173 Z M9,172 L10,172 L10,173 L9,173 L9,172 Z M10,173 L11,173 L11,174 L10,174 L10,173 Z M10,172 L11,172 L11,173 L10,173 L10,172 Z M10,171 L11,171 L11,172 L10,172 L10,171 Z M11,172 L12,172 L12,173 L11,173 L11,172 Z M11,171 L12,171 L12,172 L11,172 L11,171 Z M11,170 L12,170 L12,171 L11,171 L11,170 Z M12,171 L13,171 L13,172 L12,172 L12,171 Z M12,170 L13,170 L13,171 L12,171 L12,170 Z M12,169 L13,169 L13,170 L12,170 L12,169 Z M13,170 L14,170 L14,171 L13,171 L13,170 Z M13,169 L14,169 L14,170 L13,170 L13,169 Z M13,168 L14,168 L14,169 L13,169 L13,168 Z M14,169 L15,169 L15,170 L14,170 L14,169 Z M14,168 L15,168 L15,169 L14,169 L14,168 Z M14,167 L15,167 L15,168 L14,168 L14,167 Z M15,168 L16,168 L16,169 L15,169 L15,168 Z M15,167 L16,167 L16,168 L15,168 L15,167 Z M15,166 L16,166 L16,167 L15,167 L15,166 Z M0,168 L1,168 L1,169 L0,169 L0,168 Z M0,167 L1,167 L1,168 L0,168 L0,167 Z M0,166 L1,166 L1,167 L0,167 L0,166 Z M1,169 L2,169 L2,170 L1,170 L1,169 Z M1,168 L2,168 L2,169 L1,169 L1,168 Z M1,167 L2,167 L2,168 L1,168 L1,167 Z" id="Стрелка" transform="translate(8.000000, 171.000000) scale(-1, -1) rotate(-270.000000) translate(-8.000000, -171.000000) "></path>
            </g>
        </g>
    </g>
</svg>