<?xml version="1.0" encoding="UTF-8"?>
<svg width="10px" height="16px" viewBox="0 0 10 16" version="1.1" xmlns="http://www.w3.org/2000/svg" xmlns:xlink="http://www.w3.org/1999/xlink">
    <!-- Generator: Sketch 46.2 (44496) - http://www.bohemiancoding.com/sketch -->
    <title>Стрелка Вправо</title>
    <desc>Created with Sketch.</desc>
    <defs></defs>
    <g id="Иконки,-заглушки,-кнопки" stroke="none" stroke-width="1" fill="none" fill-rule="evenodd">
        <g id="Иконки-1" transform="translate(-3.000000, -119.000000)" fill="#A8C7E7">
            <g id="Group" transform="translate(0.000000, 14.000000)">
                <path d="M9,107 L9,108 L8,108 L8,107 L9,107 Z M10,107 L10,108 L9,108 L9,107 L10,107 Z M11,107 L11,108 L10,108 L10,107 L11,107 Z M10,108 L10,109 L9,109 L9,108 L10,108 Z M9,108 L9,109 L8,109 L8,108 L9,108 Z M8,108 L8,109 L7,109 L7,108 L8,108 Z M9,109 L9,110 L8,110 L8,109 L9,109 Z M8,109 L8,110 L7,110 L7,109 L8,109 Z M7,109 L7,110 L6,110 L6,109 L7,109 Z M8,110 L8,111 L7,111 L7,110 L8,110 Z M7,110 L7,111 L6,111 L6,110 L7,110 Z M6,110 L6,111 L5,111 L5,110 L6,110 Z M7,111 L7,112 L6,112 L6,111 L7,111 Z M6,111 L6,112 L5,112 L5,111 L6,111 Z M5,111 L5,112 L4,112 L4,111 L5,111 Z M6,113 L6,114 L5,114 L5,113 L6,113 Z M4,113 L4,114 L3,114 L3,113 L4,113 Z M5,113 L5,114 L4,114 L4,113 L5,113 Z M6,112 L6,113 L5,113 L5,112 L6,112 Z M4,112 L4,113 L3,113 L3,112 L4,112 Z M5,112 L5,113 L4,113 L4,112 L5,112 Z M5,114 L5,115 L4,115 L4,114 L5,114 Z M6,114 L6,115 L5,115 L5,114 L6,114 Z M7,114 L7,115 L6,115 L6,114 L7,114 Z M6,115 L6,116 L5,116 L5,115 L6,115 Z M7,115 L7,116 L6,116 L6,115 L7,115 Z M8,115 L8,116 L7,116 L7,115 L8,115 Z M7,116 L7,117 L6,117 L6,116 L7,116 Z M8,116 L8,117 L7,117 L7,116 L8,116 Z M9,116 L9,117 L8,117 L8,116 L9,116 Z M8,117 L8,118 L7,118 L7,117 L8,117 Z M9,117 L9,118 L8,118 L8,117 L9,117 Z M10,117 L10,118 L9,118 L9,117 L10,117 Z M9,118 L9,119 L8,119 L8,118 L9,118 Z M10,118 L10,119 L9,119 L9,118 L10,118 Z M11,118 L11,119 L10,119 L10,118 L11,118 Z M10,119 L10,120 L9,120 L9,119 L10,119 Z M11,119 L11,120 L10,120 L10,119 L11,119 Z M12,119 L12,120 L11,120 L11,119 L12,119 Z M11,120 L11,121 L10,121 L10,120 L11,120 Z M12,120 L12,121 L11,121 L11,120 L12,120 Z M13,120 L13,121 L12,121 L12,120 L13,120 Z M11,105 L11,106 L10,106 L10,105 L11,105 Z M12,105 L12,106 L11,106 L11,105 L12,105 Z M13,105 L13,106 L12,106 L12,105 L13,105 Z M10,106 L10,107 L9,107 L9,106 L10,106 Z M11,106 L11,107 L10,107 L10,106 L11,106 Z M12,106 L12,107 L11,107 L11,106 L12,106 Z" id="Стрелка-Вправо"></path>
            </g>
        </g>
    </g>
</svg>