<?xml version="1.0" encoding="UTF-8"?>
<svg width="10px" height="16px" viewBox="0 0 10 16" version="1.1" xmlns="http://www.w3.org/2000/svg" xmlns:xlink="http://www.w3.org/1999/xlink">
    <!-- Generator: Sketch 46.2 (44496) - http://www.bohemiancoding.com/sketch -->
    <title>Стрелка Вправо</title>
    <desc>Created with Sketch.</desc>
    <defs></defs>
    <g id="Иконки,-заглушки,-кнопки" stroke="none" stroke-width="1" fill="none" fill-rule="evenodd">
        <g id="Иконки-1" transform="translate(-3.000000, -145.000000)" fill="#A8C7E7">
            <g id="Group" transform="translate(0.000000, 14.000000)">
                <path d="M9,133 L9,134 L8,134 L8,133 L9,133 Z M10,133 L10,134 L9,134 L9,133 L10,133 Z M11,133 L11,134 L10,134 L10,133 L11,133 Z M10,134 L10,135 L9,135 L9,134 L10,134 Z M9,134 L9,135 L8,135 L8,134 L9,134 Z M8,134 L8,135 L7,135 L7,134 L8,134 Z M9,135 L9,136 L8,136 L8,135 L9,135 Z M8,135 L8,136 L7,136 L7,135 L8,135 Z M7,135 L7,136 L6,136 L6,135 L7,135 Z M8,136 L8,137 L7,137 L7,136 L8,136 Z M7,136 L7,137 L6,137 L6,136 L7,136 Z M6,136 L6,137 L5,137 L5,136 L6,136 Z M7,137 L7,138 L6,138 L6,137 L7,137 Z M6,137 L6,138 L5,138 L5,137 L6,137 Z M5,137 L5,138 L4,138 L4,137 L5,137 Z M6,139 L6,140 L5,140 L5,139 L6,139 Z M4,139 L4,140 L3,140 L3,139 L4,139 Z M5,139 L5,140 L4,140 L4,139 L5,139 Z M6,138 L6,139 L5,139 L5,138 L6,138 Z M4,138 L4,139 L3,139 L3,138 L4,138 Z M5,138 L5,139 L4,139 L4,138 L5,138 Z M5,140 L5,141 L4,141 L4,140 L5,140 Z M6,140 L6,141 L5,141 L5,140 L6,140 Z M7,140 L7,141 L6,141 L6,140 L7,140 Z M6,141 L6,142 L5,142 L5,141 L6,141 Z M7,141 L7,142 L6,142 L6,141 L7,141 Z M8,141 L8,142 L7,142 L7,141 L8,141 Z M7,142 L7,143 L6,143 L6,142 L7,142 Z M8,142 L8,143 L7,143 L7,142 L8,142 Z M9,142 L9,143 L8,143 L8,142 L9,142 Z M8,143 L8,144 L7,144 L7,143 L8,143 Z M9,143 L9,144 L8,144 L8,143 L9,143 Z M10,143 L10,144 L9,144 L9,143 L10,143 Z M9,144 L9,145 L8,145 L8,144 L9,144 Z M10,144 L10,145 L9,145 L9,144 L10,144 Z M11,144 L11,145 L10,145 L10,144 L11,144 Z M10,145 L10,146 L9,146 L9,145 L10,145 Z M11,145 L11,146 L10,146 L10,145 L11,145 Z M12,145 L12,146 L11,146 L11,145 L12,145 Z M11,146 L11,147 L10,147 L10,146 L11,146 Z M12,146 L12,147 L11,147 L11,146 L12,146 Z M13,146 L13,147 L12,147 L12,146 L13,146 Z M11,131 L11,132 L10,132 L10,131 L11,131 Z M12,131 L12,132 L11,132 L11,131 L12,131 Z M13,131 L13,132 L12,132 L12,131 L13,131 Z M10,132 L10,133 L9,133 L9,132 L10,132 Z M11,132 L11,133 L10,133 L10,132 L11,132 Z M12,132 L12,133 L11,133 L11,132 L12,132 Z" id="Стрелка-Вправо" transform="translate(8.000000, 139.000000) scale(-1, -1) translate(-8.000000, -139.000000) "></path>
            </g>
        </g>
    </g>
</svg>