<?xml version="1.0" encoding="UTF-8"?>
<svg width="33px" height="32px" viewBox="0 0 33 32" version="1.1" xmlns="http://www.w3.org/2000/svg" xmlns:xlink="http://www.w3.org/1999/xlink">
    <!-- Generator: Sketch 46.2 (44496) - http://www.bohemiancoding.com/sketch -->
    <title>Корзина</title>
    <desc>Created with Sketch.</desc>
    <defs></defs>
    <g id="Symbols" stroke="none" stroke-width="1" fill="none" fill-rule="evenodd">
        <g id="Экшнбар-+-Логотип" transform="translate(-313.000000, -9.000000)" fill="#B91717">
            <g id="Полная-корзина" transform="translate(9.000000, 5.000000)">
                <path d="M315,33 C315,34.656 316.344,36 318,36 C319.656,36 321,34.656 321,33 C321,31.344 319.656,30 318,30 C316.344,30 315,31.344 315,33 Z M326,33 C326,34.656 327.344,36 329,36 C330.656,36 332,34.656 332,33 C332,31.344 330.656,30 329,30 C327.344,30 326,31.344 326,33 Z M312.14,8 L311.6,6 C311.188,4.204 310.062,4 309.532,4 L306,4 C304.896,4 304,4.896 304,6 C304,7.104 304.896,8 306,8 L308,8 L313.397226,25.0912146 C313.730129,26.1454077 314.890925,27 315.997422,27 L331.002578,27 C332.105724,27 333.184906,26.1216964 333.413004,25.0382291 L336.586996,9.96177089 C336.815092,8.87831475 336.100533,8 335.007625,8 L312.14,8 Z" id="Корзина"></path>
            </g>
        </g>
    </g>
</svg>