<?xml version="1.0" encoding="UTF-8"?>
<svg width="14px" height="12px" viewBox="0 0 14 12" version="1.1" xmlns="http://www.w3.org/2000/svg" xmlns:xlink="http://www.w3.org/1999/xlink">
    <!-- Generator: Sketch 46.2 (44496) - http://www.bohemiancoding.com/sketch -->
    <title>Rectangle 565</title>
    <desc>Created with Sketch.</desc>
    <defs></defs>
    <g id="Иконки,-заглушки,-кнопки" stroke="none" stroke-width="1" fill="none" fill-rule="evenodd">
        <g id="Иконки-1" transform="translate(-1.000000, -42.000000)" fill="#000000">
            <g id="Group" transform="translate(0.000000, 14.000000)">
                <path d="M14,30 L15,30 L15,31 L14,31 L14,30 Z M14,29 L15,29 L15,30 L14,30 L14,29 Z M14,28 L15,28 L15,29 L14,29 L14,28 Z M1,33 L2,33 L2,34 L1,34 L1,33 Z M1,34 L2,34 L2,35 L1,35 L1,34 Z M1,35 L2,35 L2,36 L1,36 L1,35 Z M2,34 L3,34 L3,35 L2,35 L2,34 Z M2,35 L3,35 L3,36 L2,36 L2,35 Z M2,36 L3,36 L3,37 L2,37 L2,36 Z M3,35 L4,35 L4,36 L3,36 L3,35 Z M3,36 L4,36 L4,37 L3,37 L3,36 Z M3,37 L4,37 L4,38 L3,38 L3,37 Z M4,36 L5,36 L5,37 L4,37 L4,36 Z M4,37 L5,37 L5,38 L4,38 L4,37 Z M4,38 L5,38 L5,39 L4,39 L4,38 Z M5,37 L6,37 L6,38 L5,38 L5,37 Z M5,39 L6,39 L6,40 L5,40 L5,39 Z M5,38 L6,38 L6,39 L5,39 L5,38 Z M6,38 L7,38 L7,39 L6,39 L6,38 Z M6,37 L7,37 L7,38 L6,38 L6,37 Z M6,36 L7,36 L7,37 L6,37 L6,36 Z M7,37 L8,37 L8,38 L7,38 L7,37 Z M7,36 L8,36 L8,37 L7,37 L7,36 Z M7,35 L8,35 L8,36 L7,36 L7,35 Z M8,36 L9,36 L9,37 L8,37 L8,36 Z M8,35 L9,35 L9,36 L8,36 L8,35 Z M8,34 L9,34 L9,35 L8,35 L8,34 Z M9,35 L10,35 L10,36 L9,36 L9,35 Z M9,34 L10,34 L10,35 L9,35 L9,34 Z M9,33 L10,33 L10,34 L9,34 L9,33 Z M10,34 L11,34 L11,35 L10,35 L10,34 Z M10,33 L11,33 L11,34 L10,34 L10,33 Z M10,32 L11,32 L11,33 L10,33 L10,32 Z M11,33 L12,33 L12,34 L11,34 L11,33 Z M11,32 L12,32 L12,33 L11,33 L11,32 Z M11,31 L12,31 L12,32 L11,32 L11,31 Z M12,32 L13,32 L13,33 L12,33 L12,32 Z M12,31 L13,31 L13,32 L12,32 L12,31 Z M12,30 L13,30 L13,31 L12,31 L12,30 Z M13,31 L14,31 L14,32 L13,32 L13,31 Z M13,30 L14,30 L14,31 L13,31 L13,30 Z M13,29 L14,29 L14,30 L13,30 L13,29 Z" id="Rectangle-565"></path>
            </g>
        </g>
    </g>
</svg>