<?xml version="1.0" encoding="UTF-8"?>
<svg width="18px" height="14px" viewBox="0 0 18 14" version="1.1" xmlns="http://www.w3.org/2000/svg" xmlns:xlink="http://www.w3.org/1999/xlink">
    <!-- Generator: Sketch 46.2 (44496) - http://www.bohemiancoding.com/sketch -->
    <title>Галочка</title>
    <desc>Created with Sketch.</desc>
    <defs></defs>
    <g id="Иконки,-заглушки,-кнопки" stroke="none" stroke-width="1" fill="none" fill-rule="evenodd">
        <g id="Иконки-2" transform="translate(-2.000000, -14.000000)" fill="#17B96F">
            <path d="M4,19 L5,19 L5,20 L4,20 L4,19 Z M5,20 L6,20 L6,21 L5,21 L5,20 Z M6,21 L7,21 L7,22 L6,22 L6,21 Z M7,22 L8,22 L8,23 L7,23 L7,22 Z M8,23 L9,23 L9,24 L8,24 L8,23 Z M9,22 L10,22 L10,23 L9,23 L9,22 Z M10,21 L11,21 L11,22 L10,22 L10,21 Z M11,20 L12,20 L12,21 L11,21 L11,20 Z M12,19 L13,19 L13,20 L12,20 L12,19 Z M13,18 L14,18 L14,19 L13,19 L13,18 Z M14,17 L15,17 L15,18 L14,18 L14,17 Z M15,16 L16,16 L16,17 L15,17 L15,16 Z M16,15 L17,15 L17,16 L16,16 L16,15 Z M17,14 L18,14 L18,15 L17,15 L17,14 Z M4,20 L5,20 L5,21 L4,21 L4,20 Z M5,21 L6,21 L6,22 L5,22 L5,21 Z M6,22 L7,22 L7,23 L6,23 L6,22 Z M7,23 L8,23 L8,24 L7,24 L7,23 Z M8,24 L9,24 L9,25 L8,25 L8,24 Z M9,23 L10,23 L10,24 L9,24 L9,23 Z M10,22 L11,22 L11,23 L10,23 L10,22 Z M11,21 L12,21 L12,22 L11,22 L11,21 Z M12,20 L13,20 L13,21 L12,21 L12,20 Z M13,19 L14,19 L14,20 L13,20 L13,19 Z M14,18 L15,18 L15,19 L14,19 L14,18 Z M15,17 L16,17 L16,18 L15,18 L15,17 Z M16,16 L17,16 L17,17 L16,17 L16,16 Z M17,15 L18,15 L18,16 L17,16 L17,15 Z M4,21 L5,21 L5,22 L4,22 L4,21 Z M5,22 L6,22 L6,23 L5,23 L5,22 Z M6,23 L7,23 L7,24 L6,24 L6,23 Z M7,24 L8,24 L8,25 L7,25 L7,24 Z M8,25 L9,25 L9,26 L8,26 L8,25 Z M9,24 L10,24 L10,25 L9,25 L9,24 Z M10,23 L11,23 L11,24 L10,24 L10,23 Z M11,22 L12,22 L12,23 L11,23 L11,22 Z M12,21 L13,21 L13,22 L12,22 L12,21 Z M13,20 L14,20 L14,21 L13,21 L13,20 Z M14,19 L15,19 L15,20 L14,20 L14,19 Z M15,18 L16,18 L16,19 L15,19 L15,18 Z M16,17 L17,17 L17,18 L16,18 L16,17 Z M17,16 L18,16 L18,17 L17,17 L17,16 Z M4,22 L5,22 L5,23 L4,23 L4,22 Z M5,23 L6,23 L6,24 L5,24 L5,23 Z M6,24 L7,24 L7,25 L6,25 L6,24 Z M7,25 L8,25 L8,26 L7,26 L7,25 Z M8,26 L9,26 L9,27 L8,27 L8,26 Z M9,25 L10,25 L10,26 L9,26 L9,25 Z M10,24 L11,24 L11,25 L10,25 L10,24 Z M11,23 L12,23 L12,24 L11,24 L11,23 Z M12,22 L13,22 L13,23 L12,23 L12,22 Z M13,21 L14,21 L14,22 L13,22 L13,21 Z M14,20 L15,20 L15,21 L14,21 L14,20 Z M15,19 L16,19 L16,20 L15,20 L15,19 Z M16,18 L17,18 L17,19 L16,19 L16,18 Z M17,17 L18,17 L18,18 L17,18 L17,17 Z M4,23 L5,23 L5,24 L4,24 L4,23 Z M5,24 L6,24 L6,25 L5,25 L5,24 Z M6,25 L7,25 L7,26 L6,26 L6,25 Z M7,26 L8,26 L8,27 L7,27 L7,26 Z M8,27 L9,27 L9,28 L8,28 L8,27 Z M9,26 L10,26 L10,27 L9,27 L9,26 Z M10,25 L11,25 L11,26 L10,26 L10,25 Z M11,24 L12,24 L12,25 L11,25 L11,24 Z M12,23 L13,23 L13,24 L12,24 L12,23 Z M13,22 L14,22 L14,23 L13,23 L13,22 Z M14,21 L15,21 L15,22 L14,22 L14,21 Z M15,20 L16,20 L16,21 L15,21 L15,20 Z M16,19 L17,19 L17,20 L16,20 L16,19 Z M17,18 L18,18 L18,19 L17,19 L17,18 Z M18,15 L19,15 L19,16 L18,16 L18,15 Z M19,16 L20,16 L20,17 L19,17 L19,16 Z M18,17 L19,17 L19,18 L18,18 L18,17 Z M18,16 L19,16 L19,17 L18,17 L18,16 Z M3,20 L4,20 L4,21 L3,21 L3,20 Z M2,21 L3,21 L3,22 L2,22 L2,21 Z M3,22 L4,22 L4,23 L3,23 L3,22 Z M3,21 L4,21 L4,22 L3,22 L3,21 Z" id="Галочка"></path>
        </g>
    </g>
</svg>