<?xml version="1.0" encoding="UTF-8"?>
<svg width="16px" height="16px" viewBox="0 0 16 16" version="1.1" xmlns="http://www.w3.org/2000/svg" xmlns:xlink="http://www.w3.org/1999/xlink">
    <!-- Generator: Sketch 46.2 (44496) - http://www.bohemiancoding.com/sketch -->
    <title>Крестик</title>
    <desc>Created with Sketch.</desc>
    <defs></defs>
    <g id="Иконки,-заглушки,-кнопки" stroke="none" stroke-width="1" fill="none" fill-rule="evenodd">
        <g id="Иконки-1" transform="translate(0.000000, -201.000000)" fill="#175FB9">
            <g id="Group" transform="translate(0.000000, 14.000000)">
                <path d="M2,190 L3,190 L3,191 L2,191 L2,190 Z M2,189 L3,189 L3,190 L2,190 L2,189 Z M2,188 L3,188 L3,189 L2,189 L2,188 Z M3,189 L4,189 L4,190 L3,190 L3,189 Z M3,190 L4,190 L4,191 L3,191 L3,190 Z M3,191 L4,191 L4,192 L3,192 L3,191 Z M4,190 L5,190 L5,191 L4,191 L4,190 Z M4,191 L5,191 L5,192 L4,192 L4,191 Z M4,192 L5,192 L5,193 L4,193 L4,192 Z M5,191 L6,191 L6,192 L5,192 L5,191 Z M5,192 L6,192 L6,193 L5,193 L5,192 Z M5,193 L6,193 L6,194 L5,194 L5,193 Z M6,192 L7,192 L7,193 L6,193 L6,192 Z M6,193 L7,193 L7,194 L6,194 L6,193 Z M6,194 L7,194 L7,195 L6,195 L6,194 Z M8,193 L9,193 L9,194 L8,194 L8,193 Z M7,193 L8,193 L8,194 L7,194 L7,193 Z M7,194 L8,194 L8,195 L7,195 L7,194 Z M8,194 L9,194 L9,195 L8,195 L8,194 Z M9,194 L10,194 L10,195 L9,195 L9,194 Z M9,193 L10,193 L10,194 L9,194 L9,193 Z M9,192 L10,192 L10,193 L9,193 L9,192 Z M10,193 L11,193 L11,194 L10,194 L10,193 Z M10,192 L11,192 L11,193 L10,193 L10,192 Z M10,191 L11,191 L11,192 L10,192 L10,191 Z M11,192 L12,192 L12,193 L11,193 L11,192 Z M11,191 L12,191 L12,192 L11,192 L11,191 Z M11,190 L12,190 L12,191 L11,191 L11,190 Z M12,191 L13,191 L13,192 L12,192 L12,191 Z M12,190 L13,190 L13,191 L12,191 L12,190 Z M12,189 L13,189 L13,190 L12,190 L12,189 Z M13,190 L14,190 L14,191 L13,191 L13,190 Z M13,189 L14,189 L14,190 L13,190 L13,189 Z M13,188 L14,188 L14,189 L13,189 L13,188 Z M14,189 L15,189 L15,190 L14,190 L14,189 Z M14,188 L15,188 L15,189 L14,189 L14,188 Z M14,187 L15,187 L15,188 L14,188 L14,187 Z M15,188 L16,188 L16,189 L15,189 L15,188 Z M0,188 L1,188 L1,189 L0,189 L0,188 Z M1,189 L2,189 L2,190 L1,190 L1,189 Z M1,188 L2,188 L2,189 L1,189 L1,188 Z M1,187 L2,187 L2,188 L1,188 L1,187 Z M2,199 L3,199 L3,200 L2,200 L2,199 Z M2,200 L3,200 L3,201 L2,201 L2,200 Z M2,201 L3,201 L3,202 L2,202 L2,201 Z M3,200 L4,200 L4,201 L3,201 L3,200 Z M3,199 L4,199 L4,200 L3,200 L3,199 Z M3,198 L4,198 L4,199 L3,199 L3,198 Z M4,199 L5,199 L5,200 L4,200 L4,199 Z M4,198 L5,198 L5,199 L4,199 L4,198 Z M4,197 L5,197 L5,198 L4,198 L4,197 Z M5,198 L6,198 L6,199 L5,199 L5,198 Z M5,197 L6,197 L6,198 L5,198 L5,197 Z M5,196 L6,196 L6,197 L5,197 L5,196 Z M6,197 L7,197 L7,198 L6,198 L6,197 Z M6,196 L7,196 L7,197 L6,197 L6,196 Z M7,196 L8,196 L8,197 L7,197 L7,196 Z M8,196 L9,196 L9,197 L8,197 L8,196 Z M9,196.5 L9,196 L10,196 L10,197 L9,197 L9,196.5 Z M6,195 L7,195 L7,196 L6,196 L6,195 Z M7,195 L8,195 L8,196 L7,196 L7,195 Z M8,195 L9,195 L9,196 L8,196 L8,195 Z M9,195.5 L9,195 L10,195 L10,196 L9,196 L9,195.5 Z M9,197 L10,197 L10,198 L9,198 L9,197 Z M10,196 L11,196 L11,197 L10,197 L10,196 Z M10,197 L11,197 L11,198 L10,198 L10,197 Z M10,198 L11,198 L11,199 L10,199 L10,198 Z M11,197 L12,197 L12,198 L11,198 L11,197 Z M11,198 L12,198 L12,199 L11,199 L11,198 Z M11,199 L12,199 L12,200 L11,200 L11,199 Z M12,198 L13,198 L13,199 L12,199 L12,198 Z M12,199 L13,199 L13,200 L12,200 L12,199 Z M12,200 L13,200 L13,201 L12,201 L12,200 Z M13,199 L14,199 L14,200 L13,200 L13,199 Z M13,200 L14,200 L14,201 L13,201 L13,200 Z M13,201 L14,201 L14,202 L13,202 L13,201 Z M14,200 L15,200 L15,201 L14,201 L14,200 Z M14,201 L15,201 L15,202 L14,202 L14,201 Z M14,202 L15,202 L15,203 L14,203 L14,202 Z M15,201 L16,201 L16,202 L15,202 L15,201 Z M0,201 L1,201 L1,202 L0,202 L0,201 Z M1,200 L2,200 L2,201 L1,201 L1,200 Z M1,201 L2,201 L2,202 L1,202 L1,201 Z M1,202 L2,202 L2,203 L1,203 L1,202 Z" id="Крестик"></path>
            </g>
        </g>
    </g>
</svg>