<?xml version="1.0" encoding="UTF-8"?>
<svg width="16px" height="15px" viewBox="0 0 16 15" version="1.1" xmlns="http://www.w3.org/2000/svg" xmlns:xlink="http://www.w3.org/1999/xlink">
    <!-- Generator: Sketch 46.2 (44496) - http://www.bohemiancoding.com/sketch -->
    <title>Комментарии</title>
    <desc>Created with Sketch.</desc>
    <defs></defs>
    <g id="Иконки,-заглушки,-кнопки" stroke="none" stroke-width="1" fill="none" fill-rule="evenodd">
        <g id="Иконки-для-постов" transform="translate(0.000000, -12.000000)" fill="#5C5C5C">
            <g id="Иконки-для-поста" transform="translate(0.000000, 1.000000)">
                <g id="Комментарии" transform="translate(0.000000, 11.000000)">
                    <rect id="Rectangle-700" x="0" y="0" width="16" height="12" rx="2"></rect>
                    <path d="M7,12 L8,12 L8,13 L7,13 L7,12 Z M7,13 L8,13 L8,14 L7,14 L7,13 Z M7,14 L8,14 L8,15 L7,15 L7,14 Z M6,12 L7,12 L7,13 L6,13 L6,12 Z M6,13 L7,13 L7,14 L6,14 L6,13 Z M6,14 L7,14 L7,15 L6,15 L6,14 Z M8,13 L9,13 L9,14 L8,14 L8,13 Z M8,12 L9,12 L9,13 L8,13 L8,12 Z M9,12 L10,12 L10,13 L9,13 L9,12 Z" id="Rectangle-701"></path>
                </g>
            </g>
        </g>
    </g>
</svg>