<?xml version="1.0" encoding="UTF-8"?>
<svg width="18px" height="18px" viewBox="0 0 18 18" version="1.1" xmlns="http://www.w3.org/2000/svg" xmlns:xlink="http://www.w3.org/1999/xlink">
    <!-- Generator: Sketch 46.2 (44496) - http://www.bohemiancoding.com/sketch -->
    <title>Shape</title>
    <desc>Created with Sketch.</desc>
    <defs></defs>
    <g id="Иконки,-заглушки,-кнопки" stroke="none" stroke-width="1" fill="none" fill-rule="evenodd">
        <g id="Иконки-2" transform="translate(-2.000000, -152.000000)" fill="#B91717">
            <g id="Лайки" transform="translate(2.000000, 134.000000)">
                <path d="M3,36 L3,25 L0,25 L0,36 L3,36 Z M16.3636364,24 L11.2090909,24 L12.0272727,20.16 L12.0272727,19.89 C12.0272727,19.53 11.8636364,19.17 11.7,18.9 L10.8,18 L5.4,23.94 C5.07272727,24.21 4.90909091,24.66 4,25.2 L4,29.5 L4,34.2 C4.90909091,35.19 5.64545455,36 6.54545455,36 L13.9090909,36 C14.5636364,36 15.1363636,35.55 15.3818182,34.92 L17.8363636,28.53 C17.9181818,28.35 17.9181818,28.08 17.9181818,27.9 L17.9181818,26.1 L18,26.1 C18,25.11 17.2636364,24.3 16.3636364,24 Z" id="Shape" transform="translate(9.000000, 27.000000) scale(1, -1) translate(-9.000000, -27.000000) "></path>
            </g>
        </g>
    </g>
</svg>