<?xml version="1.0" encoding="UTF-8"?>
<svg width="56px" height="40px" viewBox="0 0 56 40" version="1.1" xmlns="http://www.w3.org/2000/svg" xmlns:xlink="http://www.w3.org/1999/xlink">
    <!-- Generator: Sketch 46.2 (44496) - http://www.bohemiancoding.com/sketch -->
    <title>Instagram</title>
    <desc>Created with Sketch.</desc>
    <defs>
        <polygon id="path-1" points="13 5 43 5 43 35 13 35"></polygon>
    </defs>
    <g id="Иконки,-заглушки,-кнопки" stroke="none" stroke-width="1" fill="none" fill-rule="evenodd">
        <g id="Соцсети" transform="translate(0.000000, -160.000000)">
            <g id="Instagram" transform="translate(0.000000, 160.000000)">
                <rect id="Rectangle-55" fill="#385592" x="0" y="0" width="56" height="40" rx="4"></rect>
                <mask id="mask-2" fill="white">
                    <use xlink:href="#path-1"></use>
                </mask>
                <g id="Clip-2"></g>
                <path d="M39.5391853,35 L16.4608147,35 C14.5496541,35 13,33.4498021 13,31.5372995 L13,8.46084529 C13,6.54940278 14.5496541,5 16.4608147,5 L39.5391853,5 C41.4506109,5 43,6.54940278 43,8.46084529 L43,31.5372995 C43,33.4498021 41.4506109,35 39.5391853,35 L39.5391853,35 Z M27.9997703,15 C25.2382746,15 23,17.2380963 23,19.9996555 C23,22.7607552 25.2382746,25 27.9997703,25 C30.761266,25 33,22.7607552 33,19.9996555 C33,17.2380963 30.761266,15 27.9997703,15 L27.9997703,15 Z M39,17 L39,29.8342936 C39,30.4777099 38.5073326,31 37.8989515,31 L18.1010485,31 C17.4926674,31 17,30.4777099 17,29.8342936 L17,17 L19.4898653,17 C19.3084626,17.746856 19.2008337,18.5272094 19.2008337,19.3340926 C19.2008337,24.4894627 23.1404045,28.6675153 27.9998737,28.6675153 C32.8595955,28.6675153 36.7989136,24.4894627 36.7989136,19.3340926 C36.7989136,18.5272094 36.69179,17.746856 36.5103874,17 L39,17 Z M33,9.99791312 C33,8.89449617 33.8982606,8 34.9979131,8 L37.0020869,8 C38.1055038,8 39,8.89826062 39,9.99791312 L39,12.0020869 C39,13.1055038 38.1017394,14 37.0020869,14 L34.9979131,14 C33.8944962,14 33,13.1017394 33,12.0020869 L33,9.99791312 Z" id="Fill-1" fill="#FFFFFF" mask="url(#mask-2)"></path>
            </g>
        </g>
    </g>
</svg>