<?xml version="1.0" encoding="UTF-8"?>
<svg width="18px" height="18px" viewBox="0 0 18 18" version="1.1" xmlns="http://www.w3.org/2000/svg" xmlns:xlink="http://www.w3.org/1999/xlink">
    <!-- Generator: Sketch 46.2 (44496) - http://www.bohemiancoding.com/sketch -->
    <title>Shape</title>
    <desc>Created with Sketch.</desc>
    <defs></defs>
    <g id="Иконки,-заглушки,-кнопки" stroke="none" stroke-width="1" fill="none" fill-rule="evenodd">
        <g id="Иконки-2" transform="translate(-2.000000, -134.000000)" fill="#17B96F">
            <g id="Лайки" transform="translate(2.000000, 134.000000)">
                <path d="M3,18 L3,7 L0,7 L0,18 L3,18 Z M16.3636364,6 L11.2090909,6 L12.0272727,2.16 L12.0272727,1.89 C12.0272727,1.53 11.8636364,1.17 11.7,0.9 L10.8,0 L5.4,5.94 C5.07272727,6.21 4.90909091,6.66 4,7.2 L4,11.5 L4,16.2 C4.90909091,17.19 5.64545455,18 6.54545455,18 L13.9090909,18 C14.5636364,18 15.1363636,17.55 15.3818182,16.92 L17.8363636,10.53 C17.9181818,10.35 17.9181818,10.08 17.9181818,9.9 L17.9181818,8.1 L18,8.1 C18,7.11 17.2636364,6.3 16.3636364,6 Z" id="Shape"></path>
            </g>
        </g>
    </g>
</svg>