<?xml version="1.0" encoding="UTF-8"?>
<svg width="22px" height="32px" viewBox="0 0 22 32" version="1.1" xmlns="http://www.w3.org/2000/svg" xmlns:xlink="http://www.w3.org/1999/xlink">
    <!-- Generator: Sketch 46.2 (44496) - http://www.bohemiancoding.com/sketch -->
    <title>Карта</title>
    <desc>Created with Sketch.</desc>
    <defs></defs>
    <g id="Symbols" stroke="none" stroke-width="1" fill="none" fill-rule="evenodd">
        <g id="Экшнбар-+-Логотип" transform="translate(-239.000000, -9.000000)" fill="#175FB9">
            <g id="Пустая-корзина" transform="translate(9.000000, 5.000000)">
                <path d="M241,4 C234.926167,4 230,9.374 230,16 C230,23.708 237.921833,33.326 239.166667,34.796 C239.681833,35.406 240.112667,36 241,36 C241.887333,36 242.318167,35.406 242.833333,34.796 C244.078167,33.326 252,23.708 252,16 C252,9.374 247.073833,4 241,4 L241,4 Z M241,21 C237.6865,21 235,18.3135 235,15 C235,11.6865 237.6865,9 241,9 C244.3135,9 247,11.6865 247,15 C247,18.3135 244.3135,21 241,21 L241,21 Z M241,12 C239.344,12 238,13.344 238,15 C238,16.656 239.344,18 241,18 C242.656,18 244,16.656 244,15 C244,13.344 242.656,12 241,12 L241,12 Z" id="Карта"></path>
            </g>
        </g>
    </g>
</svg>