<?xml version="1.0" encoding="utf-8"?>
<!-- Generator: Adobe Illustrator 17.1.0, SVG Export Plug-In . SVG Version: 6.00 Build 0)  -->
<!DOCTYPE svg PUBLIC "-//W3C//DTD SVG 1.1//EN" "http://www.w3.org/Graphics/SVG/1.1/DTD/svg11.dtd">
<svg version="1.1" id="Layer_1" xmlns="http://www.w3.org/2000/svg" xmlns:xlink="http://www.w3.org/1999/xlink" x="0px" y="0px"
	 viewBox="0 0 172 32" enable-background="new 0 0 172 32" xml:space="preserve">
<g>
	<path id="path-1" fill="#175FB9" d="M172,21.4L172,21.4c0,0.8-0.3,1.3-0.7,1.7c-0.5,0.4-1.2,0.6-2,0.6h-2.1c-0.9,0-1.6-0.4-1.9-1.1
		c-0.8,0.8-1.6,1.1-2.4,1.1H161c-1.2,0-2.2-0.5-2.9-1.3c-0.7-0.9-1.1-2.1-1.1-3.5c0-2.2,0.7-4.2,2.2-5.9c1.4-1.7,3.1-2.6,4.9-2.6
		c1.4,0,2.4,0.5,3,1.5c0.5-0.9,1.2-1.3,2.1-1.3c0.5,0,0.9,0.2,1.2,0.5c0.3,0.3,0.5,0.7,0.5,1.2c0,0.3-0.1,0.7-0.3,1.1l-0.2,0.5
		l-2.3,6.1h1.8C171.3,20,172,20.5,172,21.4L172,21.4L172,21.4z M26.8,14.8h-4.6l-5.5,10c-2.6,4.7-5.6,7.1-9.1,7.1
		c-2.2,0-4-0.8-5.4-2.5C0.7,27.7,0,25.7,0,23.3c0-2,0.6-3.9,1.7-5.7c1.1-1.8,2.7-3.3,4.6-4.5c1.5-0.9,3.1-1.5,4.9-1.9
		c1.8-0.4,4.1-0.5,7.1-0.5h1.2l1.3-2.5c1.8-3.5,4-5.8,6.6-7C29.1,0.4,31.3,0,34,0c0.7,0,1.2,0.2,1.6,0.5c0.4,0.3,0.6,0.8,0.6,1.4
		c0,0.3-0.1,0.6-0.2,0.9l-0.1,0.4l-2.8,7.5h1.2h0.4c1.2,0,1.8,0.6,1.8,1.7c0,0.7-0.3,1.3-0.8,1.7c-0.5,0.5-1.1,0.7-1.8,0.7h-0.4
		h-2.1l-1.8,4.7h2.7h0.4c1.2,0,1.8,0.6,1.8,1.7c0,0.7-0.3,1.3-0.8,1.8c-0.5,0.5-1.1,0.7-1.8,0.7h-0.4H28c-0.9,0-1.7-0.3-2.3-0.8
		c-0.6-0.5-0.9-1.2-0.9-2c0-0.6,0.2-1.5,0.7-2.7L26.8,14.8L26.8,14.8z M28.4,10.7l2.4-6.2c-1.2,0.1-2.1,0.5-2.9,1.2
		c-0.8,0.7-1.7,2-2.7,3.8l-0.7,1.2H28.4L28.4,10.7z M17.2,14.8h-1.4c-3.1,0-5.6,0.6-7.5,1.8c-1.2,0.8-2.1,1.8-2.8,3
		c-0.7,1.2-1,2.4-1,3.6c0,1.1,0.3,2,1,2.8C6.2,26.8,7,27.2,8,27.2c1.7,0,3.1-1.2,4.4-3.5L17.2,14.8L17.2,14.8z M48.4,20h1.9
		c0.7,0,1.3,0.1,1.6,0.4s0.5,0.6,0.5,1.2c0,0.7-0.2,1.2-0.7,1.6c-0.5,0.4-1.2,0.6-2,0.6h-2.9c-0.9,0-1.5-0.4-1.8-1.1
		c-0.6,0.7-1.3,1.1-2.2,1.1h-2.4c-1,0-1.7-0.3-2.4-0.9c-0.6-0.6-0.9-1.4-0.9-2.4c0-0.6,0.1-1.2,0.4-1.9l2.2-5.7
		c0.6-1.6,1.5-2.4,2.5-2.4c0.5,0,0.9,0.2,1.2,0.5c0.3,0.3,0.5,0.7,0.5,1.2c0,0.3-0.1,0.7-0.3,1.2l-0.2,0.5L41.7,18l-0.2,0.5
		c-0.1,0.3-0.2,0.5-0.2,0.7c0,0.5,0.3,0.8,0.9,0.8c1.3,0,2.2-0.6,2.7-1.7l2-5.3c0.6-1.6,1.5-2.4,2.6-2.4c0.5,0,0.8,0.2,1.2,0.5
		c0.3,0.3,0.5,0.7,0.5,1.1c0,0.4-0.1,0.9-0.4,1.6L48.4,20L48.4,20z M64.2,20H66c1.4,0,2.1,0.5,2.1,1.5c0,0.7-0.2,1.2-0.7,1.6
		c-0.5,0.4-1.2,0.6-2,0.6h-2.2c-0.8,0-1.5-0.4-1.9-1.1c-0.7,0.7-1.4,1.1-2.2,1.1H57c-1.2,0-2.2-0.4-2.9-1.3c-0.7-0.9-1.1-2-1.1-3.5
		c0-2.2,0.7-4.2,2.1-6c1.4-1.8,3-2.6,4.8-2.6c1.3,0,2.4,0.5,3.1,1.5l3.6-9.4C67.4,0.8,68.2,0,69.3,0c0.5,0,0.9,0.2,1.2,0.5
		C70.8,0.8,71,1.2,71,1.7c0,0.4-0.1,0.8-0.2,1.2l-0.2,0.5L64.2,20L64.2,20z M58.2,20h0.6c0.7,0,1.2-0.3,1.5-0.9l1.2-3.2
		c0.2-0.4,0.2-0.7,0.2-0.9c0-0.3-0.1-0.6-0.4-0.9c-0.3-0.2-0.6-0.4-1-0.4c-0.8,0-1.6,0.5-2.4,1.5c-0.7,1-1.1,2.1-1.1,3.2
		C56.8,19.5,57.3,20,58.2,20L58.2,20z M73.3,20l2.3-6.1c0.3-0.8,0.4-1.3,0.4-1.7c0-0.4-0.2-0.8-0.5-1.1c-0.3-0.3-0.7-0.5-1.2-0.5
		c-1.1,0-1.9,0.6-2.4,1.9L71.8,13l-2.7,7c-0.2,0.6-0.3,1.1-0.3,1.4c0,0.7,0.3,1.3,0.8,1.7c0.5,0.4,1.3,0.6,2.3,0.6h2.6
		c0.9,0,1.5-0.2,2-0.6c0.5-0.4,0.7-0.9,0.7-1.6c0-1-0.7-1.5-2-1.5L73.3,20L73.3,20L73.3,20z M75.4,5.1c0.6,0,1.2,0.2,1.6,0.7
		c0.4,0.5,0.7,1,0.7,1.7S77.4,8.7,77,9.2c-0.4,0.5-1,0.7-1.6,0.7s-1.2-0.2-1.6-0.7c-0.4-0.5-0.7-1-0.7-1.7s0.2-1.2,0.7-1.7
		C74.2,5.3,74.8,5.1,75.4,5.1L75.4,5.1z M85.3,10.3c1.6,0,2.9,0.5,3.9,1.6c1,1,1.5,2.4,1.5,4c0,1.2-0.3,2.4-0.8,3.6
		c-0.5,1.2-1.2,2.2-2.1,2.9c-0.6,0.5-1.1,0.8-1.7,1c-0.6,0.2-1.4,0.3-2.5,0.3c-1.8,0-3-0.2-3.6-0.7c-1.5-1.1-2.2-2.6-2.2-4.7
		c0-2.2,0.7-4.1,2.2-5.6C81.5,11.1,83.3,10.3,85.3,10.3L85.3,10.3z M84.9,14c-0.8,0-1.5,0.4-2.2,1.3c-0.7,0.8-1,1.8-1,2.8
		c0,1.3,0.7,2,2.1,2c0.8,0,1.5-0.3,1.9-0.8c0.7-0.9,1.1-1.9,1.1-3c0-0.7-0.2-1.2-0.5-1.6C86,14.2,85.5,14,84.9,14L84.9,14z
		 M111.1,20h1.9c1.4,0,2.1,0.5,2.1,1.5c0,0.7-0.2,1.2-0.7,1.6c-0.5,0.4-1.2,0.6-2,0.6h-3.3c-0.7,0-1.3-0.2-1.7-0.6
		c-0.4-0.4-0.7-0.9-0.7-1.6c0-0.4,0.1-1.1,0.4-1.8l1.5-3.9c0.1-0.2,0.1-0.4,0.1-0.6c0-0.7-0.4-1.1-1.1-1.1c-0.6,0-1.1,0.3-1.6,0.8
		c-0.5,0.5-1,1.2-1.3,2.1l-1.8,4.7c-0.6,1.5-1.5,2.3-2.6,2.3c-0.4,0-0.8-0.2-1.1-0.5c-0.3-0.3-0.5-0.7-0.5-1.1
		c0-0.3,0.1-0.7,0.2-1.2l0.2-0.5L101,16c0.2-0.4,0.2-0.8,0.2-1c0-0.3-0.1-0.5-0.3-0.7c-0.2-0.2-0.5-0.3-0.8-0.3
		c-1.2,0-2.1,0.9-2.8,2.7l-1.9,4.9c-0.6,1.5-1.5,2.3-2.6,2.3c-0.4,0-0.8-0.2-1.1-0.5c-0.3-0.3-0.5-0.7-0.5-1.1
		c0-0.3,0.1-0.7,0.2-1.2l0.2-0.5l3.2-8.4c0.5-1.2,1.1-1.8,2-1.8c0.9,0,1.5,0.5,1.8,1.4c0.7-0.7,1.3-1.1,1.8-1.3s1-0.3,1.7-0.3
		c1.5,0,2.5,0.7,3.3,2c1.2-1.3,2.6-2,4.1-2c1,0,1.9,0.3,2.6,1c0.7,0.6,1,1.4,1,2.3c0,0.6-0.1,1.2-0.4,1.8L111.1,20L111.1,20z
		 M126.9,20h1.8c1.4,0,2,0.5,2,1.5c0,0.7-0.2,1.2-0.7,1.6c-0.5,0.4-1.2,0.6-2,0.6h-2.1c-0.9,0-1.6-0.4-1.9-1.1
		c-0.8,0.8-1.6,1.1-2.4,1.1h-1.9c-1.2,0-2.2-0.5-2.9-1.3c-0.7-0.9-1.1-2.1-1.1-3.5c0-2.2,0.7-4.2,2.2-5.9c1.4-1.7,3.1-2.6,4.9-2.6
		c1.4,0,2.4,0.5,3,1.5c0.5-0.9,1.2-1.3,2.1-1.3c0.5,0,0.9,0.2,1.2,0.5c0.3,0.3,0.5,0.7,0.5,1.2c0,0.3-0.1,0.7-0.3,1.1l-0.2,0.5
		L126.9,20L126.9,20z M121,20h0.4c0.9,0,1.5-0.4,1.8-1.1l1.1-3c0.2-0.4,0.2-0.7,0.2-1c0-0.3-0.1-0.6-0.4-0.8c-0.3-0.2-0.6-0.3-1-0.3
		c-0.8,0-1.6,0.5-2.3,1.5c-0.7,1-1.1,2-1.1,3C119.6,19.5,120,20,121,20L121,20z M143.4,20h2c1.4,0,2.1,0.5,2.1,1.5
		c0,0.7-0.2,1.2-0.7,1.6c-0.5,0.4-1.2,0.6-2,0.6h-3.4c-0.7,0-1.2-0.2-1.7-0.6c-0.5-0.4-0.7-1-0.7-1.6c0-0.4,0.2-1,0.5-1.8l1.4-3.7
		c0.2-0.4,0.2-0.7,0.2-0.9c0-0.3-0.1-0.5-0.3-0.7c-0.2-0.2-0.5-0.3-0.9-0.3c-1.1,0-2,0.9-2.7,2.7l-1.9,5c-0.6,1.5-1.4,2.3-2.6,2.3
		c-0.5,0-0.9-0.1-1.2-0.4c-0.3-0.3-0.5-0.7-0.5-1.1c0-0.3,0.1-0.7,0.3-1.1l0.2-0.5l3.3-8.5c0.4-1.1,1.1-1.7,2.2-1.7
		c0.8,0,1.4,0.4,1.8,1.2c1.2-0.9,2.3-1.4,3.3-1.4c1,0,1.9,0.3,2.5,0.9c0.7,0.6,1,1.4,1,2.3c0,0.5-0.1,1.1-0.4,1.7L143.4,20L143.4,20
		z M152.5,20h1.8c1.4,0,2,0.5,2,1.5c0,0.7-0.2,1.2-0.7,1.6c-0.5,0.4-1.2,0.6-2,0.6h-2.6c-1,0-1.7-0.2-2.3-0.6
		c-0.5-0.4-0.8-1-0.8-1.7c0-0.4,0.1-0.9,0.3-1.4l2.7-7l0.2-0.5c0.5-1.3,1.3-1.9,2.4-1.9c0.5,0,0.8,0.2,1.2,0.5
		c0.3,0.3,0.5,0.7,0.5,1.1c0,0.4-0.1,0.9-0.4,1.7L152.5,20L152.5,20z M154.7,5.1c0.6,0,1.2,0.2,1.6,0.7c0.4,0.5,0.7,1,0.7,1.7
		s-0.2,1.2-0.7,1.7c-0.4,0.5-1,0.7-1.6,0.7c-0.6,0-1.2-0.2-1.6-0.7c-0.4-0.5-0.7-1-0.7-1.7s0.2-1.2,0.7-1.7
		C153.5,5.3,154,5.1,154.7,5.1L154.7,5.1z M162.2,20h0.4c0.9,0,1.5-0.4,1.8-1.1l1.1-3c0.2-0.4,0.2-0.7,0.2-1c0-0.3-0.1-0.6-0.4-0.8
		c-0.3-0.2-0.6-0.3-1-0.3c-0.8,0-1.6,0.5-2.3,1.5c-0.7,1-1.1,2-1.1,3C160.9,19.5,161.3,20,162.2,20L162.2,20z"/>
</g>
<title>Clip 2</title>
<desc>Created with Sketch.</desc>
<g id="Symbols">
	<g id="Экшнбар-_x2B_-Логотип" transform="translate(-9.000000, -9.000000)">
		<g id="Пустая-корзина" transform="translate(9.000000, 5.000000)">
			<g id="Лого" transform="translate(0.000000, 4.000000)">
				<g id="Clip-2">
				</g>
			</g>
		</g>
	</g>
</g>
</svg>
