<?xml version="1.0" encoding="UTF-8"?>
<svg width="32px" height="32px" viewBox="0 0 32 32" version="1.1" xmlns="http://www.w3.org/2000/svg" xmlns:xlink="http://www.w3.org/1999/xlink">
    <!-- Generator: Sketch 46.2 (44496) - http://www.bohemiancoding.com/sketch -->
    <title>Телефон</title>
    <desc>Created with Sketch.</desc>
    <defs></defs>
    <g id="Symbols" stroke="none" stroke-width="1" fill="none" fill-rule="evenodd">
        <g id="Экшнбар-+-Логотип" transform="translate(-194.000000, -9.000000)" fill="#175FB9">
            <g id="Полная-корзина" transform="translate(9.000000, 5.000000)">
                <path d="M203.45769,22.4573448 C200.290882,25.6241522 196.623674,28.6513592 195.17447,27.2017558 C193.098866,25.126551 191.819263,23.3189468 187.244452,26.9957553 C182.669241,30.6741639 186.18325,33.1249696 188.193654,35.1361743 C190.51366,37.4557796 199.16208,35.2581745 207.7105,26.7109547 C216.257719,18.1617348 218.456924,9.51331474 216.135319,7.19250935 C214.124514,5.18170468 211.673709,1.66889652 207.9969,6.24450715 C204.319292,10.8181178 206.126096,12.0981207 208.202101,14.1737256 C209.650904,15.6233289 206.624497,19.2901375 203.45769,22.4573448 L203.45769,22.4573448 Z" id="Телефон" transform="translate(201.000745, 20.000436) scale(-1, 1) translate(-201.000745, -20.000436) "></path>
            </g>
        </g>
    </g>
</svg>