<?xml version="1.0" encoding="UTF-8"?>
<svg width="10px" height="9px" viewBox="0 0 10 9" version="1.1" xmlns="http://www.w3.org/2000/svg" xmlns:xlink="http://www.w3.org/1999/xlink">
    <!-- Generator: Sketch 46.2 (44496) - http://www.bohemiancoding.com/sketch -->
    <title>Rectangle 3</title>
    <desc>Created with Sketch.</desc>
    <defs></defs>
    <g id="Иконки,-заглушки,-кнопки" stroke="none" stroke-width="1" fill="none" fill-rule="evenodd">
        <g id="Иконки-1" transform="translate(-3.000000, -82.000000)" fill="#CA46C5">
            <g id="Group" transform="translate(0.000000, 14.000000)">
                <path d="M8,73 L9,73 L9,74 L8,74 L8,73 Z M8,74 L9,74 L9,75 L8,75 L8,74 Z M9,72 L10,72 L10,73 L9,73 L9,72 Z M8,72 L9,72 L9,73 L8,73 L8,72 Z M7,74 L8,74 L8,75 L7,75 L7,74 Z M7,75 L8,75 L8,76 L7,76 L7,75 Z M7,73 L8,73 L8,74 L7,74 L7,73 Z M6,75 L7,75 L7,76 L6,76 L6,75 Z M6,76 L7,76 L7,77 L6,77 L6,76 Z M6,74 L7,74 L7,75 L6,75 L6,74 Z M5,74 L6,74 L6,75 L5,75 L5,74 Z M5,75 L6,75 L6,76 L5,76 L5,75 Z M5,73 L6,73 L6,74 L5,74 L5,73 Z M4,73 L5,73 L5,74 L4,74 L4,73 Z M4,74 L5,74 L5,75 L4,75 L4,74 Z M4,72 L5,72 L5,73 L4,73 L4,72 Z M3,72 L4,72 L4,73 L3,73 L3,72 Z M3,73 L4,73 L4,74 L3,74 L3,73 Z M3,71 L4,71 L4,72 L3,72 L3,71 Z M9,73 L10,73 L10,74 L9,74 L9,73 Z M10,71 L11,71 L11,72 L10,72 L10,71 Z M9,71 L10,71 L10,72 L9,72 L9,71 Z M10,72 L11,72 L11,73 L10,73 L10,72 Z M11,70 L12,70 L12,71 L11,71 L11,70 Z M10,70 L11,70 L11,71 L10,71 L10,70 Z M11,71 L12,71 L12,72 L11,72 L11,71 Z M12,69 L13,69 L13,70 L12,70 L12,69 Z M11,69 L12,69 L12,70 L11,70 L11,69 Z M12,70 L13,70 L13,71 L12,71 L12,70 Z M12,68 L13,68 L13,69 L12,69 L12,68 Z" id="Rectangle-3"></path>
            </g>
        </g>
    </g>
</svg>