<?xml version="1.0" encoding="UTF-8"?>
<svg width="10px" height="9px" viewBox="0 0 10 9" version="1.1" xmlns="http://www.w3.org/2000/svg" xmlns:xlink="http://www.w3.org/1999/xlink">
    <!-- Generator: Sketch 46.2 (44496) - http://www.bohemiancoding.com/sketch -->
    <title>Rectangle 3</title>
    <desc>Created with Sketch.</desc>
    <defs></defs>
    <g id="Иконки,-заглушки,-кнопки" stroke="none" stroke-width="1" fill="none" fill-rule="evenodd">
        <g id="Иконки-1" transform="translate(-3.000000, -91.000000)" fill="#B91717">
            <g id="Group" transform="translate(0.000000, 14.000000)">
                <path d="M8,82 L9,82 L9,83 L8,83 L8,82 Z M8,83 L9,83 L9,84 L8,84 L8,83 Z M9,81 L10,81 L10,82 L9,82 L9,81 Z M8,81 L9,81 L9,82 L8,82 L8,81 Z M7,83 L8,83 L8,84 L7,84 L7,83 Z M7,84 L8,84 L8,85 L7,85 L7,84 Z M7,82 L8,82 L8,83 L7,83 L7,82 Z M6,84 L7,84 L7,85 L6,85 L6,84 Z M6,85 L7,85 L7,86 L6,86 L6,85 Z M6,83 L7,83 L7,84 L6,84 L6,83 Z M5,83 L6,83 L6,84 L5,84 L5,83 Z M5,84 L6,84 L6,85 L5,85 L5,84 Z M5,82 L6,82 L6,83 L5,83 L5,82 Z M4,82 L5,82 L5,83 L4,83 L4,82 Z M4,83 L5,83 L5,84 L4,84 L4,83 Z M4,81 L5,81 L5,82 L4,82 L4,81 Z M3,81 L4,81 L4,82 L3,82 L3,81 Z M3,82 L4,82 L4,83 L3,83 L3,82 Z M3,80 L4,80 L4,81 L3,81 L3,80 Z M9,82 L10,82 L10,83 L9,83 L9,82 Z M10,80 L11,80 L11,81 L10,81 L10,80 Z M9,80 L10,80 L10,81 L9,81 L9,80 Z M10,81 L11,81 L11,82 L10,82 L10,81 Z M11,79 L12,79 L12,80 L11,80 L11,79 Z M10,79 L11,79 L11,80 L10,80 L10,79 Z M11,80 L12,80 L12,81 L11,81 L11,80 Z M12,78 L13,78 L13,79 L12,79 L12,78 Z M11,78 L12,78 L12,79 L11,79 L11,78 Z M12,79 L13,79 L13,80 L12,80 L12,79 Z M12,77 L13,77 L13,78 L12,78 L12,77 Z" id="Rectangle-3"></path>
            </g>
        </g>
    </g>
</svg>