<?xml version="1.0" encoding="UTF-8"?>
<svg width="22px" height="22px" viewBox="0 0 22 22" version="1.1" xmlns="http://www.w3.org/2000/svg" xmlns:xlink="http://www.w3.org/1999/xlink">
    <!-- Generator: Sketch 46.2 (44496) - http://www.bohemiancoding.com/sketch -->
    <title>Лупа</title>
    <desc>Created with Sketch.</desc>
    <defs></defs>
    <g id="Иконки,-заглушки,-кнопки" stroke="none" stroke-width="1" fill="none" fill-rule="evenodd">
        <g id="Иконки-2" transform="translate(0.000000, -112.000000)">
            <g id="Лупа" transform="translate(0.000000, 112.000000)">
                <circle id="Oval-41" stroke="#BBBBBB" stroke-width="2" cx="11" cy="11" r="10"></circle>
                <path d="M21,21 L21,22 L20,22 L20,21 L21,21 Z M22,20 L22,21 L21,21 L21,20 L22,20 Z M21,20 L21,21 L20,21 L20,20 L21,20 Z M21,19 L21,20 L20,20 L20,19 L21,19 Z M20,20 L20,21 L19,21 L19,20 L20,20 Z M20,19 L20,20 L19,20 L19,19 L20,19 Z M19,19 L19,20 L18,20 L18,19 L19,19 Z M20,18 L20,19 L19,19 L19,18 L20,18 Z M19,18 L19,19 L18,19 L18,18 L19,18 Z M18,18 L18,19 L17,19 L17,18 L18,18 Z M19,17 L19,18 L18,18 L18,17 L19,17 Z M22,21 L22,22 L21,22 L21,21 L22,21 Z" id="Стрелка" fill="#BBBBBB"></path>
            </g>
        </g>
    </g>
</svg>