<?xml version="1.0" encoding="UTF-8"?>
<svg width="14px" height="11px" viewBox="0 0 14 11" version="1.1" xmlns="http://www.w3.org/2000/svg" xmlns:xlink="http://www.w3.org/1999/xlink">
    <!-- Generator: Sketch 46.2 (44496) - http://www.bohemiancoding.com/sketch -->
    <title>Shape</title>
    <desc>Created with Sketch.</desc>
    <defs></defs>
    <g id="Иконки,-заглушки,-кнопки" stroke="none" stroke-width="1" fill="none" fill-rule="evenodd">
        <g id="Иконки-для-постов" transform="translate(-1.000000, -1.000000)" fill="#5C5C5C">
            <g id="Иконки-для-поста" transform="translate(0.000000, 1.000000)">
                <g id="Просмотры" transform="translate(1.000000, 0.000000)">
                    <path d="M7,3.66666667 C7,4.67866667 6.216,5.5 5.25,5.5 C5.25,6.512 6.034,7.33333333 7,7.33333333 C7.966,7.33333333 8.75,6.512 8.75,5.5 C8.75,4.488 7.966,3.66666667 7,3.66666667 L7,3.66666667 Z M7,0 C3.41075,0 0,4.26066667 0,5.5 C0,6.73933333 3.41075,11 7,11 C10.58925,11 14,6.73933333 14,5.5 C14,4.26066667 10.58925,0 7,0 L7,0 Z M7,9.16666667 C5.067125,9.16666667 3.5,7.52491667 3.5,5.5 C3.5,3.47508333 5.067125,1.83333333 7,1.83333333 C8.932875,1.83333333 10.5,3.47508333 10.5,5.5 C10.5,7.52491667 8.932875,9.16666667 7,9.16666667 L7,9.16666667 Z" id="Shape"></path>
                </g>
            </g>
        </g>
    </g>
</svg>