<?xml version="1.0" encoding="UTF-8"?>
<svg width="56px" height="40px" viewBox="0 0 56 40" version="1.1" xmlns="http://www.w3.org/2000/svg" xmlns:xlink="http://www.w3.org/1999/xlink">
    <!-- Generator: Sketch 46.2 (44496) - http://www.bohemiancoding.com/sketch -->
    <title>VK</title>
    <desc>Created with Sketch.</desc>
    <defs></defs>
    <g id="Иконки,-заглушки,-кнопки" stroke="none" stroke-width="1" fill="none" fill-rule="evenodd">
        <g id="Соцсети">
            <g id="VK">
                <rect id="Rectangle-55" fill="#4C6C91" x="0" y="0" width="56" height="40" rx="4"></rect>
                <path d="M27.860111,28.2543649 L29.6754723,28.2543649 C29.6754723,28.2543649 30.2236956,28.1939384 30.5040103,27.8923407 C30.7616517,27.6151275 30.7534166,27.094925 30.7534166,27.094925 C30.7534166,27.094925 30.7179094,24.6590425 31.848259,24.3003338 C32.9629939,23.9467586 34.3940856,26.6545068 35.9108438,27.6957675 C37.0578775,28.4834508 37.9295162,28.3110481 37.9295162,28.3110481 L41.9855771,28.2543649 C41.9855771,28.2543649 44.1072419,28.1234586 43.1011677,26.4552599 C43.0188165,26.3190062 42.5150843,25.2212762 40.0852979,22.9659245 C37.5418242,20.6053345 37.8827793,20.9872512 40.9463486,16.9040251 C42.8120831,14.4173416 43.5578422,12.8993 43.3247992,12.2491538 C43.1027719,11.6297021 41.7303956,11.7933349 41.7303956,11.7933349 L37.1636506,11.8215695 C37.1636506,11.8215695 36.8248345,11.7754743 36.5739309,11.9256314 C36.3284817,12.0724731 36.1709451,12.4155672 36.1709451,12.4155672 C36.1709451,12.4155672 35.4478593,14.3396962 34.484244,15.9763449 C32.4507057,19.4293174 31.6374614,19.6120942 31.3050623,19.3973395 C30.5317102,18.8975644 30.724968,17.3900038 30.724968,16.3186903 C30.724968,12.9722395 31.2325505,11.576976 29.7365405,11.2158074 C29.2401877,11.0960239 28.8745273,11.0167743 27.6049294,11.0038334 C25.9753394,10.9872563 24.5964391,11.0088601 23.8154936,11.3914185 C23.2959328,11.6458515 22.895086,12.212684 23.1393587,12.2453036 C23.4412772,12.2855166 24.1246847,12.4297915 24.4870297,12.9228288 C24.9551478,13.5597133 24.9387846,14.9894146 24.9387846,14.9894146 C24.9387846,14.9894146 25.2077626,18.9286867 24.3107769,19.4178738 C23.6952824,19.7534814 22.8508089,19.0683628 21.0378004,15.9355971 C20.1090507,14.3309264 19.4075687,12.5569545 19.4075687,12.5569545 C19.4075687,12.5569545 19.2724915,12.2255179 19.0312134,12.0480886 C18.7385994,11.8331201 18.3297314,11.7649932 18.3297314,11.7649932 L13.9899333,11.7933349 C13.9899333,11.7933349 13.3386107,11.8115163 13.0992577,12.0948256 C12.8863211,12.3470126 13.0822527,12.8679637 13.0822527,12.8679637 C13.0822527,12.8679637 16.4796115,20.8166667 20.3268,24.8223544 C23.8547441,28.4954291 27.860111,28.2543649 27.860111,28.2543649" id="Fill-4" fill="#FFFFFE"></path>
            </g>
        </g>
    </g>
</svg>