<?xml version="1.0" encoding="UTF-8"?>
<svg width="18px" height="14px" viewBox="0 0 18 14" version="1.1" xmlns="http://www.w3.org/2000/svg" xmlns:xlink="http://www.w3.org/1999/xlink">
    <!-- Generator: Sketch 46.2 (44496) - http://www.bohemiancoding.com/sketch -->
    <title>Галочка</title>
    <desc>Created with Sketch.</desc>
    <defs></defs>
    <g id="Иконки,-заглушки,-кнопки" stroke="none" stroke-width="1" fill="none" fill-rule="evenodd">
        <g id="Иконки-2" transform="translate(-2.000000, 0.000000)" fill="#FFFFFF">
            <path d="M4,5 L5,5 L5,6 L4,6 L4,5 Z M5,6 L6,6 L6,7 L5,7 L5,6 Z M6,7 L7,7 L7,8 L6,8 L6,7 Z M7,8 L8,8 L8,9 L7,9 L7,8 Z M8,9 L9,9 L9,10 L8,10 L8,9 Z M9,8 L10,8 L10,9 L9,9 L9,8 Z M10,7 L11,7 L11,8 L10,8 L10,7 Z M11,6 L12,6 L12,7 L11,7 L11,6 Z M12,5 L13,5 L13,6 L12,6 L12,5 Z M13,4 L14,4 L14,5 L13,5 L13,4 Z M14,3 L15,3 L15,4 L14,4 L14,3 Z M15,2 L16,2 L16,3 L15,3 L15,2 Z M16,1 L17,1 L17,2 L16,2 L16,1 Z M17,0 L18,0 L18,1 L17,1 L17,0 Z M4,6 L5,6 L5,7 L4,7 L4,6 Z M5,7 L6,7 L6,8 L5,8 L5,7 Z M6,8 L7,8 L7,9 L6,9 L6,8 Z M7,9 L8,9 L8,10 L7,10 L7,9 Z M8,10 L9,10 L9,11 L8,11 L8,10 Z M9,9 L10,9 L10,10 L9,10 L9,9 Z M10,8 L11,8 L11,9 L10,9 L10,8 Z M11,7 L12,7 L12,8 L11,8 L11,7 Z M12,6 L13,6 L13,7 L12,7 L12,6 Z M13,5 L14,5 L14,6 L13,6 L13,5 Z M14,4 L15,4 L15,5 L14,5 L14,4 Z M15,3 L16,3 L16,4 L15,4 L15,3 Z M16,2 L17,2 L17,3 L16,3 L16,2 Z M17,1 L18,1 L18,2 L17,2 L17,1 Z M4,7 L5,7 L5,8 L4,8 L4,7 Z M5,8 L6,8 L6,9 L5,9 L5,8 Z M6,9 L7,9 L7,10 L6,10 L6,9 Z M7,10 L8,10 L8,11 L7,11 L7,10 Z M8,11 L9,11 L9,12 L8,12 L8,11 Z M9,10 L10,10 L10,11 L9,11 L9,10 Z M10,9 L11,9 L11,10 L10,10 L10,9 Z M11,8 L12,8 L12,9 L11,9 L11,8 Z M12,7 L13,7 L13,8 L12,8 L12,7 Z M13,6 L14,6 L14,7 L13,7 L13,6 Z M14,5 L15,5 L15,6 L14,6 L14,5 Z M15,4 L16,4 L16,5 L15,5 L15,4 Z M16,3 L17,3 L17,4 L16,4 L16,3 Z M17,2 L18,2 L18,3 L17,3 L17,2 Z M4,8 L5,8 L5,9 L4,9 L4,8 Z M5,9 L6,9 L6,10 L5,10 L5,9 Z M6,10 L7,10 L7,11 L6,11 L6,10 Z M7,11 L8,11 L8,12 L7,12 L7,11 Z M8,12 L9,12 L9,13 L8,13 L8,12 Z M9,11 L10,11 L10,12 L9,12 L9,11 Z M10,10 L11,10 L11,11 L10,11 L10,10 Z M11,9 L12,9 L12,10 L11,10 L11,9 Z M12,8 L13,8 L13,9 L12,9 L12,8 Z M13,7 L14,7 L14,8 L13,8 L13,7 Z M14,6 L15,6 L15,7 L14,7 L14,6 Z M15,5 L16,5 L16,6 L15,6 L15,5 Z M16,4 L17,4 L17,5 L16,5 L16,4 Z M17,3 L18,3 L18,4 L17,4 L17,3 Z M4,9 L5,9 L5,10 L4,10 L4,9 Z M5,10 L6,10 L6,11 L5,11 L5,10 Z M6,11 L7,11 L7,12 L6,12 L6,11 Z M7,12 L8,12 L8,13 L7,13 L7,12 Z M8,13 L9,13 L9,14 L8,14 L8,13 Z M9,12 L10,12 L10,13 L9,13 L9,12 Z M10,11 L11,11 L11,12 L10,12 L10,11 Z M11,10 L12,10 L12,11 L11,11 L11,10 Z M12,9 L13,9 L13,10 L12,10 L12,9 Z M13,8 L14,8 L14,9 L13,9 L13,8 Z M14,7 L15,7 L15,8 L14,8 L14,7 Z M15,6 L16,6 L16,7 L15,7 L15,6 Z M16,5 L17,5 L17,6 L16,6 L16,5 Z M17,4 L18,4 L18,5 L17,5 L17,4 Z M18,1 L19,1 L19,2 L18,2 L18,1 Z M19,2 L20,2 L20,3 L19,3 L19,2 Z M18,3 L19,3 L19,4 L18,4 L18,3 Z M18,2 L19,2 L19,3 L18,3 L18,2 Z M3,6 L4,6 L4,7 L3,7 L3,6 Z M2,7 L3,7 L3,8 L2,8 L2,7 Z M3,8 L4,8 L4,9 L3,9 L3,8 Z M3,7 L4,7 L4,8 L3,8 L3,7 Z" id="Галочка"></path>
        </g>
    </g>
</svg>