<?xml version="1.0" encoding="UTF-8"?>
<svg width="18px" height="19px" viewBox="0 0 18 19" version="1.1" xmlns="http://www.w3.org/2000/svg" xmlns:xlink="http://www.w3.org/1999/xlink">
    <!-- Generator: Sketch 46.2 (44496) - http://www.bohemiancoding.com/sketch -->
    <title>Лупа -</title>
    <desc>Created with Sketch.</desc>
    <defs></defs>
    <g id="Иконки,-заглушки,-кнопки" stroke="none" stroke-width="1" fill="none" fill-rule="evenodd">
        <g id="Иконки-2" transform="translate(-2.000000, -56.000000)">
            <g id="Лупа--" transform="translate(2.000000, 56.000000)">
                <rect id="Плюс" fill="#E6F3FF" x="4" y="7" width="8" height="2"></rect>
                <path d="M12,18 L13,18 L13,19 L12,19 L12,18 Z M12,17 L13,17 L13,18 L12,18 L12,17 Z M13,18 L14,18 L14,19 L13,19 L13,18 Z M13,17 L14,17 L14,18 L13,18 L13,17 Z M13,16 L14,16 L14,17 L13,17 L13,16 Z M14,17 L15,17 L15,18 L14,18 L14,17 Z M14,16 L15,16 L15,17 L14,17 L14,16 Z M14,15 L15,15 L15,16 L14,16 L14,15 Z M15,16 L16,16 L16,17 L15,17 L15,16 Z M15,15 L16,15 L16,16 L15,16 L15,15 Z M15,14 L16,14 L16,15 L15,15 L15,14 Z M16,15 L17,15 L17,16 L16,16 L16,15 Z M16,14 L17,14 L17,15 L16,15 L16,14 Z M16,13 L17,13 L17,14 L16,14 L16,13 Z M17,14 L18,14 L18,15 L17,15 L17,14 Z" id="Стрелка" fill="#E6F3FF" transform="translate(15.000000, 16.000000) rotate(-270.000000) translate(-15.000000, -16.000000) "></path>
                <circle id="Обводка" stroke="#E6F3FF" stroke-width="2" cx="8" cy="8" r="7"></circle>
            </g>
        </g>
    </g>
</svg>